<?xml version="1.0" encoding="UTF-8"?>
<svg xmlns="http://www.w3.org/2000/svg" xmlns:xlink="http://www.w3.org/1999/xlink" version="1.1" viewBox="0 0 209.12 64.55">
  <!-- Generator: Adobe Illustrator 30.1.0, SVG Export Plug-In . SVG Version: 2.1.1 Build 136)  -->
  <defs>
    <style>
      .st0 {
        fill: none;
      }

      .st1 {
        fill: #231f20;
      }

      .st2 {
        fill: url(#linear-gradient);
      }

      .st3 {
        clip-path: url(#clippath);
      }
    </style>
    <clipPath id="clippath">
      <path class="st0" d="M5.59,53.86c-2.95,0-5.34,2.4-5.34,5.35s2.39,5.35,5.34,5.35h142.52c2.95,0,5.35-2.39,5.35-5.35s-2.39-5.35-5.35-5.35H5.59ZM157.93,59.21c0,2.95,2.39,5.34,5.34,5.34s5.34-2.39,5.34-5.34-2.4-5.35-5.34-5.35-5.34,2.39-5.34,5.35M174.52,59.21c0,2.95,2.39,5.34,5.34,5.34s5.35-2.39,5.35-5.34-2.4-5.35-5.35-5.35-5.34,2.39-5.34,5.35M191.32,59.21c0,2.95,2.39,5.34,5.34,5.34s5.35-2.39,5.35-5.34-2.4-5.35-5.35-5.35-5.34,2.39-5.34,5.35Z"/>
    </clipPath>
    <linearGradient id="linear-gradient" x1="-1476.38" y1="-66.48" x2="-1473.74" y2="-66.48" gradientTransform="translate(127765.08 5814.32) scale(86.57)" gradientUnits="userSpaceOnUse">
      <stop offset="0" stop-color="#d12240"/>
      <stop offset="0" stop-color="#d12240"/>
      <stop offset=".16" stop-color="#e61466"/>
      <stop offset=".32" stop-color="#ed7b23"/>
      <stop offset=".46" stop-color="#f8c92d"/>
      <stop offset=".62" stop-color="#a9c93a"/>
      <stop offset=".78" stop-color="#008fc4"/>
      <stop offset=".81" stop-color="#187bb7"/>
      <stop offset=".84" stop-color="#3e5ea5"/>
      <stop offset=".88" stop-color="#5c4696"/>
      <stop offset=".92" stop-color="#71368c"/>
      <stop offset=".96" stop-color="#7e2c86"/>
      <stop offset=".99" stop-color="#832984"/>
      <stop offset="1" stop-color="#832984"/>
    </linearGradient>
  </defs>
  <g id="Layer_2">
    <g id="Layer_1-2">
      <g class="st3">
        <rect class="st2" x=".24" y="53.85" width="201.77" height="10.7"/>
      </g>
    </g>
  </g>
  <g id="Layer_3">
    <path class="st1" d="M39.75,23.67c.19-.87.44-1.8.68-2.67.93-3.54,2.17-4.6,5.53-4.6s4.72.87,4.72,3.17c0,.43-.06,1.24-.25,1.99l-.5,2.11h-10.19,0ZM162.48,10h-8.57l-5.22,26.15h-3.91c-2.36,0-3.41-.75-3.41-2.55,0-.37.06-.87.19-1.36l4.41-22.24h-8.57l-4.54,22.79c-.25,1.12-.31,2.05-.31,2.86,0,4.78,3.17,7.45,8.76,7.45h14.66l6.52-33.1h-.01ZM59.81,43.1h8.57l5.22-26.15h4.16c2.36,0,3.41.74,3.41,2.54,0,.37-.06.87-.19,1.37l-4.41,22.23h8.57l4.54-22.79c.25-1.12.31-2.05.31-2.86,0-4.78-3.17-7.45-8.76-7.45h-14.91l-6.52,33.1h0ZM119.94,43.1l4.41-22.17c.56-2.8,2.05-3.91,5.22-3.91h3.04l1.43-7.02h-5.47c-7.95,0-11.12,2.42-12.48,9.44l-4.66,23.66h8.51ZM46.65,9.38c-5.47,0-7.76.74-10.37,3.35-3.35,3.35-5.84,11.18-5.84,18.32,0,8.32,4.16,12.05,13.41,12.05h10.31l1.43-6.77h-10c-4.78,0-7.02-1.62-7.02-5.09,0-.5.06-1.06.12-1.74h18.01l1.3-6.15c.31-1.61.43-3.23.43-4.41,0-6.46-3.85-9.56-11.8-9.56M195.77,16.21c2.73,0,4.35,1.12,4.35,2.86,0,.25,0,.43-.06.81l-4.6,23.23h8.64l4.85-23.91c.12-.62.19-1.24.19-1.8,0-5.03-4.47-8.26-11.37-8.26-3.1,0-6.64.93-9.13,2.36-1.68-1.55-4.66-2.36-8.88-2.36s-9.32,1.18-11.62,2.67l-6.15,31.3h8.57l5.15-26.15c.81-.5,1.93-.75,3.29-.75,2.73,0,4.35,1.12,4.35,2.86,0,.25,0,.43-.06.81l-4.6,23.23h8.57l5.22-26.27c.99-.37,2.17-.62,3.29-.62M105.9,10l1.43-7.39h-4.22c-2.86,0-4.47,1.12-4.91,3.29l-5.34,26.89c-.25,1.18-.31,2.17-.31,3.04,0,4.72,3.04,7.27,8.7,7.27h6.58l1.3-6.96h-4.35c-2.36,0-3.41-.75-3.41-2.55,0-.62.06-.93.12-1.36l3.04-15.28h6.59l1.55-6.96h-6.77ZM25.34,43.04l1.62-7.76c-3.29.37-5.9.5-9.07.5-5.78,0-8.94-2.73-8.94-7.76,0-4.6,1.3-9.63,3.67-14.35,2.23-4.35,5.46-5.96,11.86-5.96,2.3,0,4.22.19,6.27.62l1.49-7.58C29.26.25,26.4,0,23.42,0c-8.39,0-13.42,1.99-16.9,6.65C2.3,12.42,0,20.06,0,28.57c0,9.44,5.9,14.91,16.15,14.91,2.8,0,6.59-.19,9.19-.43"/>
  </g>
</svg>