<svg xmlns="http://www.w3.org/2000/svg" width="201" height="60" fill="none"><g clip-path="url(#a)"><path fill="#625455" fill-rule="evenodd" d="M98.612 8.07h-5.895c-6.393.01-10.055 2.122-11.193 6.461L77.07 31.418c-.023.117-.04.252-.043.403 0 .005.006.101.168.318.078.1.246.152.504.152h3.496c.327 0 .635-.113.94-.345.303-.23.49-.509.573-.853l1.316-4.942h10.035v5.088c0 .322.092.564.29.76.199.201.443.293.765.293h3.338c.305 0 .549-.096.768-.303a.924.924 0 0 0 .302-.714V9.105c0-.292-.09-.53-.281-.749a.766.766 0 0 0-.628-.286Zm-4.554 14.29h-9.057l1.777-6.479c.33-1.217.982-2.201 1.935-2.927.953-.724 2.08-1.092 3.346-1.092h2v10.497Z" clip-rule="evenodd"/><path fill="#625455" d="M118.886 13.719c-1.729 0-3.135.2-4.176.592-1.065.399-2.188 1.027-3.345 1.864l-.978.71V14.56c0-.202-.067-.298-.127-.358-.059-.06-.147-.126-.34-.126h-3.978a.431.431 0 0 0-.336.131c-.065.065-.129.157-.129.354v17.272c0 .2.059.286.12.346.055.056.147.12.345.12h3.978a.476.476 0 0 0 .347-.129c.058-.055.12-.144.12-.337V20.265l.143-.173c1.571-1.89 3.272-2.848 5.056-2.848l3.301.106c.202 0 .298-.068.359-.127.064-.063.127-.15.127-.34v-2.699a.43.43 0 0 0-.132-.336c-.066-.065-.157-.13-.355-.13Zm19.399 12.969 3.012 4.866c.196.334.154.743-.072.743h-3.356c-.915 0-1.631-.449-2.192-1.375l-2.255-3.675c-1.085-1.76-2.683-2.652-4.75-2.652h-.616v7.235c0 .192-.062.28-.121.337a.473.473 0 0 1-.346.128h-3.978c-.199 0-.291-.064-.345-.12-.061-.06-.12-.145-.12-.345V8.561c0-.197.063-.29.129-.354a.43.43 0 0 1 .336-.129h3.978c.193 0 .281.065.339.125.062.06.128.156.128.358V21.78h.616c2.307 0 3.917-.923 4.783-2.75l1.706-3.622c.191-.408.463-.73.829-.972a2.04 2.04 0 0 1 1.153-.359h3.354c.222 0 .289.044.272.075 0 .097-.029.319-.225.732l-2.288 4.823a5.782 5.782 0 0 1-1.447 1.878c-.59.507-1.233.84-1.911.983l-2.356.498 2.306.693c1.303.392 2.459 1.379 3.437 2.93Z"/><path fill="#625455" fill-rule="evenodd" d="M160.942 15.49c-1.591-1.175-3.75-1.771-6.418-1.771-9.062 0-9.062 3.37-9.062 4.48a.43.43 0 0 0 .13.334c.066.066.159.133.356.133h2.645c.664 0 1.213-.278 1.682-.85.702-.862 1.892-1.299 3.53-1.299 1.629 0 2.765.322 3.47.986.712.669 1.061 1.761 1.061 3.339v.616h-6.492c-2.334 0-4.258.502-5.717 1.49-1.402.954-2.083 2.284-2.083 4.07 0 1.79.684 3.135 2.088 4.112 1.458 1.01 3.367 1.526 5.669 1.53h.036c2.287 0 4.332-.633 6.077-1.88l.973-.698v1.75c0 .145.039.252.127.343.058.06.147.122.341.122h3.426c.201 0 .291-.064.348-.122.054-.053.119-.144.119-.343V20.84c-.002-2.453-.755-4.203-2.306-5.35Zm-2.607 12.488-.288.182c-1.784 1.123-3.669 1.694-5.6 1.694-1.061 0-1.905-.257-2.511-.767a2.588 2.588 0 0 1-.963-2.05c0-.83.314-1.514.934-2.035l.005-.002c.592-.496 1.384-.745 2.357-.745h6.066v3.723Z" clip-rule="evenodd"/><path fill="#625455" d="M192.891 13.703h.013c2.16.008 3.81.631 5.045 1.908 1.221 1.265 1.841 3.29 1.841 6.024v10.19c0 .199-.066.29-.118.343-.059.059-.151.123-.349.123h-3.959c-.201 0-.296-.07-.355-.13a.427.427 0 0 1-.131-.337V21.635c0-1.833-.4-3.12-1.22-3.939-.614-.607-1.442-.918-2.458-.918h-.029c-1.474 0-2.909.97-4.385 2.966l-.147.202.034.25c.068.477.102.96.102 1.44v10.188c0 .194-.064.28-.124.34a.458.458 0 0 1-.344.127h-3.958c-.197 0-.29-.064-.356-.133a.422.422 0 0 1-.13-.335V21.634c0-1.833-.4-3.12-1.222-3.94-.613-.606-1.441-.917-2.457-.917h-.028c-1.516 0-2.957.94-4.28 2.796l-.115.16v12.09c0 .194-.065.282-.122.337a.474.474 0 0 1-.347.13h-3.978c-.199 0-.291-.065-.346-.12-.061-.06-.12-.147-.12-.347V14.552c0-.198.063-.29.128-.354a.438.438 0 0 1 .337-.13h3.978c.192 0 .281.065.339.124.061.06.129.157.129.358v2.576l1.045-1.015c.81-.79 1.609-1.395 2.377-1.809.727-.392 1.629-.591 2.681-.591 2.552 0 4.432 1.019 5.746 3.12l.419.669.546-.569c2.065-2.141 4.191-3.228 6.318-3.228ZM93.957 40.072c-.02-.024-.06-.072-.213-.072H91.4c-.222.002-.563.087-.858.782l-4.558 10.442-4.556-10.438c-.33-.786-.716-.786-.86-.786h-2.345c-.147 0-.188.05-.21.076-.08.097-.1.147-.105.157v.002a.3.3 0 0 0 .025.098l.006.013 6.155 13.743c.348.778.806.867 1.12.867h1.541c.314 0 .77-.09 1.12-.867l6.166-13.743a.357.357 0 0 0 .018-.127l-.004-.008c-.013-.018-.039-.065-.098-.14Z"/><path fill="#625455" fill-rule="evenodd" d="M98.807 45.003c1.03-1.007 2.429-1.495 4.282-1.495 1.827 0 3.265.49 4.272 1.454 1.009.969 1.521 2.394 1.521 4.24v.629c0 .12-.037.175-.071.209-.034.033-.07.054-.146.054h-8.541l.036.45c.079 1 .376 1.752.881 2.233.516.493 1.321.742 2.389.742 1.094 0 1.871-.28 2.308-.83.266-.338.567-.498.936-.503h1.595c.077 0 .112.021.146.055.034.035.071.09.071.21 0 .661-.213 1.183-.653 1.593-.81.757-2.398 1.139-4.717 1.139h-.041c-1.833 0-3.274-.497-4.28-1.478-1.012-.987-1.526-2.448-1.526-4.342 0-1.894.52-3.363 1.538-4.36Zm1.331 3.167-.022.437h5.91l-.018-.434c-.102-2.48-1.647-3.001-2.924-3.001-1.278 0-2.824.521-2.946 2.998Z" clip-rule="evenodd"/><path fill="#625455" d="M121.118 43.508c-1.265 0-2.483.499-3.619 1.486l-.75.65v-1.65c0-.12-.039-.176-.071-.209a.166.166 0 0 0-.134-.056h-2.399a.168.168 0 0 0-.136.056c-.033.034-.07.089-.07.21v10.713c0 .11.038.163.07.197a.168.168 0 0 0 .136.057h2.399a.163.163 0 0 0 .134-.056c.033-.035.071-.087.071-.198v-7.54l.116-.12c1.103-1.135 2.18-1.712 3.198-1.712 1.137 0 2.493.53 2.493 3.05v6.32c0 .112.037.164.069.198a.167.167 0 0 0 .136.057h2.387c.076 0 .112-.02.146-.057.033-.034.07-.086.07-.197v-6.32c0-1.675-.399-2.922-1.185-3.707-.788-.79-1.789-1.172-3.061-1.172Zm16.575 9.762h.397c.08 0 .117.022.151.056.03.031.067.082.067.199v1.178c0 .04-.008.09-.072.154-.057.06-.123.091-.24.11-.693.139-1.62.21-2.753.21-2.797 0-4.156-1.484-4.156-4.537V40.266c0-.12.039-.175.07-.209a.165.165 0 0 1 .135-.057h2.399c.059 0 .095.015.134.056.034.034.072.09.072.21v4.095h3.432c.064 0 .1.016.14.056.031.032.067.081.067.2v1.31c0 .117-.036.168-.067.199a.17.17 0 0 1-.14.056h-3.432v4.459c0 .84.204 1.512.609 1.992.43.512 1.009.771 1.722.771l1.465-.134Zm16.558-9.55h-2.387a.17.17 0 0 0-.137.056c-.031.033-.071.087-.071.209v7.528l-.116.12c-1.127 1.159-2.176 1.721-3.209 1.721-1.13 0-2.481-.53-2.481-3.06v-6.31c0-.12-.039-.176-.072-.21a.166.166 0 0 0-.136-.055h-2.398a.17.17 0 0 0-.136.056c-.031.035-.071.088-.071.209v6.31c0 1.672.4 2.92 1.186 3.706.788.79 1.79 1.172 3.061 1.172 1.266 0 2.484-.499 3.62-1.485l.75-.65v1.66c0 .112.038.164.071.199a.169.169 0 0 0 .137.056h2.387c.075 0 .114-.021.147-.057.031-.034.07-.086.07-.198V43.986c0-.12-.037-.176-.072-.211-.029-.034-.065-.055-.143-.055Zm11.469.147c.619-.239 1.453-.36 2.48-.36.077 0 .112.022.145.056.034.036.072.09.072.2v1.673c0 .117-.036.167-.066.2-.034.033-.071.054-.151.054l-1.99-.066c-1.108 0-2.155.604-3.119 1.797l-.091.111v7.177c0 .117-.036.167-.065.198a.177.177 0 0 1-.14.056h-2.4c-.085 0-.115-.025-.14-.051-.027-.029-.066-.082-.066-.203V43.993c0-.121.039-.176.072-.209a.166.166 0 0 1 .134-.056h2.4c.073 0 .104.02.135.051.03.033.071.09.071.215v1.56l.725-.54c.69-.516 1.361-.903 1.994-1.148Z"/><path fill="#625455" fill-rule="evenodd" d="M178.08 43.508c-1.827 0-3.268.502-4.28 1.495-1.02.998-1.535 2.465-1.535 4.36 0 1.892.51 3.354 1.522 4.34 1.007.982 2.448 1.479 4.283 1.479h.039c2.32 0 3.906-.382 4.716-1.139.439-.41.653-.931.653-1.592 0-.121-.038-.176-.071-.211-.033-.034-.07-.055-.147-.055h-1.594c-.367.005-.668.165-.937.502-.436.551-1.213.83-2.307.83-1.069 0-1.876-.25-2.39-.741-.504-.481-.801-1.233-.88-2.233l-.037-.45h8.543c.075 0 .111-.02.145-.056.034-.033.072-.087.072-.207v-.63c0-1.845-.511-3.27-1.521-4.24-1.009-.964-2.447-1.452-4.274-1.452Zm-2.973 5.099.022-.437c.123-2.477 1.668-2.998 2.944-2.998 1.279 0 2.823.52 2.926 3l.016.435h-5.908Z" clip-rule="evenodd"/><path fill="#625455" d="M196.619 49.08a4.484 4.484 0 0 1 1.835 1.115c.48.486.713 1.092.713 1.849 0 .776 0 3.139-5.441 3.139-5.443 0-5.443-2.056-5.443-2.732 0-.12.039-.174.072-.208.035-.035.071-.056.147-.056h1.593c.373 0 .671.157.938.496.435.555 1.252.836 2.424.836 1.923 0 2.897-.496 2.897-1.474 0-.512-.37-.92-1.1-1.21a13.475 13.475 0 0 0-2.103-.613 24.178 24.178 0 0 1-2.337-.628 4.46 4.46 0 0 1-1.834-1.115c-.482-.49-.718-1.089-.718-1.832 0-2.112 1.679-3.14 5.131-3.14 5.42 0 5.42 2.066 5.42 2.743 0 .114-.037.17-.07.203-.031.033-.063.052-.136.052h-1.596c-.372 0-.669-.158-.936-.496-.437-.555-1.252-.836-2.425-.836-2.122 0-2.568.8-2.568 1.474 0 .513.372.92 1.102 1.21.575.23 1.281.432 2.101.602.776.16 1.561.37 2.334.62Z"/><path fill="url(#b)" d="M28.535 21.11a.698.698 0 0 1-.476-.184L14.75 8.436a.6.6 0 0 1 0-.889.705.705 0 0 1 .95.001L27.86 18.96V3.09c0-.347.302-.63.673-.63.37 0 .672.283.672.63v17.392a.631.631 0 0 1-.415.582.715.715 0 0 1-.256.047Z"/><path fill="url(#c)" d="M21.7 14.693c-.367 0-.666-.274-.672-.618l-.164-9.468a.63.63 0 0 1 .424-.594.706.706 0 0 1 .745.16l7.002 7.186c.25.257.23.655-.044.889a.706.706 0 0 1-.95-.041l-5.804-5.958.135 7.804c.005.348-.29.634-.662.639h-.01Z"/><path fill="url(#d)" d="M21.642 15.73c1.023 0 1.852-.775 1.852-1.732s-.83-1.732-1.852-1.732c-1.024 0-1.853.775-1.853 1.732s.83 1.733 1.852 1.733Z"/><path fill="url(#e)" d="M28.534 13.067c1.023 0 1.853-.776 1.853-1.733 0-.957-.83-1.732-1.853-1.732-1.023 0-1.852.775-1.852 1.732s.829 1.733 1.852 1.733Z"/><path fill="url(#f)" d="M28.534 22.215c1.023 0 1.853-.775 1.853-1.732s-.83-1.733-1.853-1.733c-1.023 0-1.852.776-1.852 1.733 0 .957.829 1.732 1.852 1.732Z"/><path fill="url(#g)" d="M15.226 9.84c1.024 0 1.853-.775 1.853-1.732s-.83-1.733-1.853-1.733c-1.023 0-1.852.776-1.852 1.733 0 .957.83 1.732 1.852 1.732Z"/><path fill="url(#h)" d="M28.534 4.708c1.023 0 1.853-.776 1.853-1.733 0-.957-.83-1.733-1.853-1.733-1.023 0-1.852.776-1.852 1.733 0 .957.829 1.733 1.852 1.733Z"/><path fill="url(#i)" d="M21.535 6.325c1.023 0 1.853-.776 1.853-1.733 0-.957-.83-1.733-1.853-1.733-1.023 0-1.852.776-1.852 1.733 0 .957.829 1.733 1.852 1.733Z"/><path fill="url(#j)" d="M36.544 21.189a.704.704 0 0 1-.257-.049.628.628 0 0 1-.414-.581l.032-17.634c0-.347.3-.628.672-.628.371 0 .672.283.672.63l-.029 16.112L49.217 7.817a.704.704 0 0 1 .95 0 .599.599 0 0 1 0 .888L37.019 21.004a.695.695 0 0 1-.475.185Z"/><path fill="url(#k)" d="m43.117 15.041-.031-.001c-.371-.016-.658-.31-.64-.657l.398-8.052-5.804 5.608a.705.705 0 0 1-.95.014.6.6 0 0 1-.016-.888l7.041-6.803a.706.706 0 0 1 .75-.14.628.628 0 0 1 .404.606l-.481 9.713c-.016.338-.313.6-.67.6Z"/><path fill="url(#l)" d="M36.566 13.153c1.023 0 1.853-.776 1.853-1.733 0-.957-.83-1.732-1.853-1.732-1.023 0-1.852.775-1.852 1.732s.83 1.733 1.852 1.733Z"/><path fill="url(#m)" d="M43.457 15.825c1.023 0 1.852-.776 1.852-1.733 0-.957-.829-1.733-1.852-1.733-1.023 0-1.852.776-1.852 1.733 0 .957.829 1.733 1.852 1.733Z"/><path fill="url(#n)" d="M36.544 22.286c1.023 0 1.852-.776 1.852-1.733 0-.957-.83-1.733-1.852-1.733-1.023 0-1.853.776-1.853 1.733 0 .957.83 1.733 1.853 1.733Z"/><path fill="url(#o)" d="M36.484 4.747c1.023 0 1.853-.776 1.853-1.733 0-.957-.83-1.733-1.853-1.733-1.023 0-1.852.776-1.852 1.733 0 .957.83 1.733 1.852 1.733Z"/><path fill="url(#p)" d="M49.778 9.91c1.023 0 1.853-.775 1.853-1.732s-.83-1.733-1.853-1.733c-1.023 0-1.852.776-1.852 1.733 0 .957.83 1.733 1.852 1.733Z"/><path fill="url(#q)" d="M43.602 6.434c1.024 0 1.853-.776 1.853-1.733 0-.956-.83-1.732-1.852-1.732-1.023 0-1.853.776-1.853 1.732 0 .957.83 1.733 1.852 1.733Z"/><path fill="url(#r)" d="M61.329 26.885H42.734a.675.675 0 0 1-.621-.389.598.598 0 0 1 .146-.684l13.354-12.449a.705.705 0 0 1 .95.001.6.6 0 0 1 0 .889L44.36 25.627h16.968c.37 0 .672.282.672.629 0 .347-.301.629-.672.629Z"/><path fill="url(#s)" d="M52.031 26.898a.694.694 0 0 1-.497-.204.6.6 0 0 1 .044-.889l6.37-5.428-8.344.127h-.012c-.366 0-.665-.275-.671-.619-.006-.347.29-.633.661-.638l10.122-.153h.011c.276 0 .524.157.625.396a.602.602 0 0 1-.171.697l-7.683 6.549a.717.717 0 0 1-.455.162Z"/><path fill="url(#t)" d="M49.66 21.544c1.022 0 1.852-.776 1.852-1.733 0-.957-.83-1.733-1.853-1.733-1.023 0-1.852.776-1.852 1.733 0 .957.829 1.733 1.852 1.733Z"/><path fill="url(#u)" d="M52.51 27.997c1.023 0 1.852-.776 1.852-1.733 0-.957-.83-1.733-1.852-1.733-1.023 0-1.853.776-1.853 1.733 0 .957.83 1.733 1.853 1.733Z"/><path fill="url(#v)" d="M42.732 27.997c1.023 0 1.853-.776 1.853-1.733 0-.957-.83-1.733-1.853-1.733-1.023 0-1.852.776-1.852 1.733 0 .957.83 1.733 1.852 1.733Z"/><path fill="url(#w)" d="M55.956 15.544c1.023 0 1.852-.776 1.852-1.733 0-.957-.829-1.733-1.852-1.733-1.023 0-1.853.776-1.853 1.733 0 .957.83 1.733 1.853 1.733Z"/><path fill="url(#x)" d="M61.447 27.997c1.023 0 1.853-.776 1.853-1.733 0-.957-.83-1.733-1.853-1.733-1.023 0-1.852.776-1.852 1.733 0 .957.83 1.733 1.852 1.733Z"/><path fill="url(#y)" d="M59.715 21.45c1.023 0 1.852-.776 1.852-1.733 0-.957-.83-1.733-1.852-1.733-1.023 0-1.853.776-1.853 1.733 0 .957.83 1.733 1.853 1.733Z"/><path fill="url(#z)" d="M56.28 46.697a.69.69 0 0 1-.476-.185L42.655 34.214a.598.598 0 0 1-.145-.686.675.675 0 0 1 .62-.387l18.854.03c.371.001.672.283.672.63-.002.347-.302.628-.673.628h-.001l-17.226-.027 11.998 11.222a.6.6 0 0 1 0 .888.696.696 0 0 1-.475.185Z"/><path fill="url(#A)" d="M60.088 41.001h-.032l-10.383-.453c-.372-.015-.658-.31-.641-.657.017-.347.332-.616.703-.6l8.607.374-5.995-5.429a.6.6 0 0 1-.016-.888.705.705 0 0 1 .95-.015l7.273 6.587a.6.6 0 0 1 .15.7.67.67 0 0 1-.616.381Z"/><path fill="url(#B)" d="M52.902 35.52c1.023 0 1.853-.776 1.853-1.733 0-.956-.83-1.732-1.853-1.732-1.023 0-1.852.776-1.852 1.732 0 .957.83 1.733 1.852 1.733Z"/><path fill="url(#C)" d="M50.044 41.973c1.023 0 1.852-.776 1.852-1.733 0-.957-.83-1.732-1.852-1.732-1.023 0-1.853.775-1.853 1.732s.83 1.733 1.853 1.733Z"/><path fill="url(#D)" d="M43.129 35.504c1.023 0 1.852-.775 1.852-1.732s-.829-1.733-1.852-1.733c-1.023 0-1.853.776-1.853 1.733 0 .957.83 1.732 1.853 1.732Z"/><path fill="url(#E)" d="M61.89 35.442c1.023 0 1.852-.776 1.852-1.733 0-.957-.83-1.732-1.852-1.732-1.023 0-1.853.775-1.853 1.732s.83 1.733 1.853 1.733Z"/><path fill="url(#F)" d="M56.363 47.88c1.023 0 1.853-.776 1.853-1.733 0-.957-.83-1.733-1.853-1.733-1.023 0-1.852.776-1.852 1.733 0 .957.83 1.732 1.852 1.732Z"/><path fill="url(#G)" d="M60.088 42.106c1.023 0 1.852-.776 1.852-1.733 0-.957-.83-1.732-1.852-1.732-1.023 0-1.853.775-1.853 1.732s.83 1.733 1.853 1.733Z"/><path fill="url(#H)" d="M36.947 58.26c-.371 0-.673-.282-.673-.63V40.239c0-.254.164-.483.416-.58a.705.705 0 0 1 .732.136l13.308 12.49a.6.6 0 0 1-.001.888.704.704 0 0 1-.95 0L37.619 41.76v15.87c0 .348-.3.63-.672.63Z"/><path fill="url(#I)" d="M43.949 56.747a.7.7 0 0 1-.498-.205l-7.001-7.186a.6.6 0 0 1 .044-.889.706.706 0 0 1 .95.041l5.803 5.958-.135-7.804c-.006-.347.29-.633.66-.639h.012c.367 0 .666.275.671.619l.164 9.467a.63.63 0 0 1-.424.594.698.698 0 0 1-.246.044Z"/><path fill="url(#J)" d="M43.842 48.45c1.023 0 1.852-.776 1.852-1.733 0-.957-.83-1.733-1.852-1.733-1.023 0-1.853.776-1.853 1.733 0 .957.83 1.733 1.853 1.733Z"/><path fill="url(#K)" d="M36.947 51.114c1.023 0 1.853-.776 1.853-1.733 0-.957-.83-1.733-1.853-1.733-1.023 0-1.852.776-1.852 1.733 0 .957.83 1.733 1.852 1.733Z"/><path fill="url(#L)" d="M36.947 41.973c1.023 0 1.853-.776 1.853-1.733 0-.957-.83-1.732-1.853-1.732-1.023 0-1.852.775-1.852 1.732s.83 1.733 1.852 1.733Z"/><path fill="url(#M)" d="M50.255 54.34c1.023 0 1.852-.775 1.852-1.732s-.83-1.733-1.852-1.733c-1.023 0-1.853.776-1.853 1.733 0 .957.83 1.732 1.853 1.732Z"/><path fill="url(#N)" d="M36.947 59.473c1.023 0 1.853-.776 1.853-1.733 0-.957-.83-1.732-1.853-1.732-1.023 0-1.852.775-1.852 1.732s.83 1.733 1.852 1.733Z"/><path fill="url(#O)" d="M43.946 57.848c1.023 0 1.853-.776 1.853-1.733 0-.957-.83-1.732-1.853-1.732-1.023 0-1.852.775-1.852 1.732s.83 1.733 1.852 1.733Z"/><path fill="url(#P)" d="M27.803 58.712h-.001c-.371-.001-.671-.283-.671-.63l.029-16.112-11.998 11.222a.704.704 0 0 1-.95 0 .6.6 0 0 1 0-.889L27.36 40.005a.705.705 0 0 1 .733-.136.628.628 0 0 1 .414.581l-.032 17.634c0 .347-.302.628-.672.628Z"/><path fill="url(#Q)" d="M20.778 56.94a.706.706 0 0 1-.266-.052.628.628 0 0 1-.405-.607l.483-9.712c.017-.347.328-.616.703-.6.371.016.658.31.64.658l-.399 8.05 5.805-5.607a.705.705 0 0 1 .95-.015.6.6 0 0 1 .015.889l-7.042 6.803a.693.693 0 0 1-.484.193Z"/><path fill="url(#R)" d="M27.815 51.325c1.023 0 1.853-.776 1.853-1.733 0-.957-.83-1.733-1.853-1.733-1.023 0-1.852.776-1.852 1.733 0 .957.83 1.733 1.852 1.733Z"/><path fill="url(#S)" d="M20.92 48.645c1.024 0 1.853-.776 1.853-1.733 0-.957-.829-1.732-1.852-1.732-1.023 0-1.853.775-1.853 1.732s.83 1.733 1.853 1.733Z"/><path fill="url(#T)" d="M27.836 42.176c1.023 0 1.852-.776 1.852-1.732 0-.957-.829-1.733-1.852-1.733-1.023 0-1.853.776-1.853 1.733 0 .956.83 1.732 1.853 1.732Z"/><path fill="url(#U)" d="M27.895 59.73c1.023 0 1.852-.775 1.852-1.732s-.83-1.732-1.852-1.732c-1.024 0-1.853.775-1.853 1.732s.83 1.733 1.852 1.733Z"/><path fill="url(#V)" d="M14.604 54.56c1.023 0 1.852-.777 1.852-1.733 0-.957-.83-1.733-1.852-1.733-1.024 0-1.853.776-1.853 1.733 0 .956.83 1.732 1.853 1.732Z"/><path fill="url(#W)" d="M20.777 58.044c1.023 0 1.853-.776 1.853-1.733 0-.957-.83-1.733-1.853-1.733-1.023 0-1.852.776-1.852 1.733 0 .957.83 1.733 1.852 1.733Z"/><path fill="url(#X)" d="M7.823 47.165a.692.692 0 0 1-.476-.185.6.6 0 0 1 .001-.888L19.55 34.719H2.582c-.372 0-.673-.282-.673-.63 0-.346.301-.628.673-.628h18.594c.272 0 .517.153.622.388a.599.599 0 0 1-.147.685L8.297 46.981a.692.692 0 0 1-.474.184Z"/><path fill="url(#Y)" d="M4.197 41.267a.674.674 0 0 1-.625-.397.602.602 0 0 1 .171-.697l7.683-6.548a.707.707 0 0 1 .95.04.6.6 0 0 1-.044.89l-6.37 5.427 8.344-.125h.012c.366 0 .665.274.67.618.006.347-.29.633-.66.639l-10.122.153h-.01Z"/><path fill="url(#Z)" d="M14.252 42.278c1.023 0 1.852-.776 1.852-1.733 0-.957-.829-1.733-1.852-1.733-1.023 0-1.853.776-1.853 1.733 0 .957.83 1.733 1.853 1.733Z"/><path fill="url(#aa)" d="M11.4 35.825c1.022 0 1.852-.776 1.852-1.733 0-.957-.83-1.733-1.853-1.733-1.023 0-1.852.776-1.852 1.733 0 .957.83 1.733 1.852 1.733Z"/><path fill="url(#ab)" d="M21.177 35.825c1.023 0 1.852-.776 1.852-1.733 0-.957-.83-1.733-1.852-1.733-1.023 0-1.853.776-1.853 1.733 0 .957.83 1.733 1.853 1.733Z"/><path fill="url(#ac)" d="M7.953 48.27c1.023 0 1.853-.776 1.853-1.733 0-.957-.83-1.732-1.853-1.732-1.023 0-1.852.775-1.852 1.732s.829 1.733 1.852 1.733Z"/><path fill="url(#ad)" d="M2.463 35.825c1.023 0 1.852-.776 1.852-1.733 0-.957-.83-1.733-1.852-1.733-1.023 0-1.853.776-1.853 1.733 0 .957.83 1.733 1.853 1.733Z"/><path fill="url(#ae)" d="M4.197 42.372c1.023 0 1.853-.776 1.853-1.733 0-.957-.83-1.733-1.853-1.733-1.023 0-1.852.776-1.852 1.733 0 .957.83 1.733 1.852 1.733Z"/><path fill="url(#af)" d="M21.889 26.54h-.002l-18.852-.031c-.372-.001-.672-.283-.672-.63.001-.347.301-.628.673-.628l17.227.027-11.998-11.22a.599.599 0 0 1 0-.89.704.704 0 0 1 .95 0l13.148 12.298a.6.6 0 0 1 .146.686.675.675 0 0 1-.62.387Z"/><path fill="url(#ag)" d="M12.203 26.524a.693.693 0 0 1-.467-.177L4.463 19.76a.6.6 0 0 1-.15-.7.675.675 0 0 1 .648-.38l10.384.452c.371.016.658.31.64.657-.016.348-.327.616-.702.6l-8.608-.374 5.995 5.43a.6.6 0 0 1 .016.888.696.696 0 0 1-.483.19Z"/><path fill="url(#ah)" d="M12.115 27.622c1.023 0 1.853-.776 1.853-1.733 0-.957-.83-1.733-1.853-1.733-1.023 0-1.852.776-1.852 1.733 0 .957.83 1.733 1.852 1.733Z"/><path fill="url(#ai)" d="M14.975 21.176c1.023 0 1.852-.775 1.852-1.732s-.83-1.733-1.853-1.733c-1.023 0-1.852.776-1.852 1.733 0 .957.83 1.732 1.853 1.732Z"/><path fill="url(#aj)" d="M21.889 27.645c1.023 0 1.852-.776 1.852-1.733 0-.957-.83-1.732-1.852-1.732-1.023 0-1.853.775-1.853 1.732s.83 1.733 1.853 1.733Z"/><path fill="url(#ak)" d="M3.127 27.7c1.023 0 1.852-.776 1.852-1.733 0-.957-.829-1.733-1.852-1.733-1.023 0-1.853.776-1.853 1.733 0 .957.83 1.733 1.853 1.733Z"/><path fill="url(#al)" d="M8.657 15.262c1.023 0 1.853-.776 1.853-1.732 0-.957-.83-1.733-1.853-1.733-1.023 0-1.852.776-1.852 1.733 0 .957.83 1.732 1.852 1.732Z"/><path fill="url(#am)" d="M4.93 21.043c1.024 0 1.853-.775 1.853-1.732s-.83-1.733-1.852-1.733c-1.023 0-1.853.776-1.853 1.733 0 .957.83 1.732 1.853 1.732Z"/><path fill="url(#an)" d="M32.176 37.051c3.877 0 7.019-2.94 7.019-6.565 0-3.625-3.142-6.564-7.019-6.564-3.876 0-7.018 2.939-7.018 6.564 0 3.626 3.142 6.565 7.018 6.565Z"/><path fill="#625455" d="M118.967 9.016h-13.085c-.224 0-.405.17-.405.378v.732c0 .209.181.379.405.379h13.085c.224 0 .405-.17.405-.38v-.73c0-.21-.181-.38-.405-.38Z"/></g><defs><linearGradient id="b" x1="40.193" x2="5.632" y1="-7.784" y2="39.723" gradientUnits="userSpaceOnUse"><stop stop-color="#F6A516"/><stop offset=".981" stop-color="#EB6623"/><stop offset="1" stop-color="#EB6623"/></linearGradient><linearGradient id="c" x1="39.027" x2="4.466" y1="-8.636" y2="38.871" gradientUnits="userSpaceOnUse"><stop stop-color="#F6A516"/><stop offset=".981" stop-color="#EB6623"/><stop offset="1" stop-color="#EB6623"/></linearGradient><linearGradient id="d" x1="39.923" x2="5.362" y1="-7.987" y2="39.52" gradientUnits="userSpaceOnUse"><stop stop-color="#F6A516"/><stop offset=".981" stop-color="#EB6623"/><stop offset="1" stop-color="#EB6623"/></linearGradient><linearGradient id="e" x1="42.836" x2="8.275" y1="-5.864" y2="41.643" gradientUnits="userSpaceOnUse"><stop stop-color="#F6A516"/><stop offset=".981" stop-color="#EB6623"/><stop offset="1" stop-color="#EB6623"/></linearGradient><linearGradient id="f" x1="47.574" x2="13.013" y1="-2.413" y2="45.094" gradientUnits="userSpaceOnUse"><stop stop-color="#F6A516"/><stop offset=".981" stop-color="#EB6623"/><stop offset="1" stop-color="#EB6623"/></linearGradient><linearGradient id="g" x1="32.874" x2="-1.687" y1="-13.114" y2="34.393" gradientUnits="userSpaceOnUse"><stop stop-color="#F6A516"/><stop offset=".981" stop-color="#EB6623"/><stop offset="1" stop-color="#EB6623"/></linearGradient><linearGradient id="h" x1="38.505" x2="3.944" y1="-9.015" y2="38.492" gradientUnits="userSpaceOnUse"><stop stop-color="#F6A516"/><stop offset=".981" stop-color="#EB6623"/><stop offset="1" stop-color="#EB6623"/></linearGradient><linearGradient id="i" x1="34.983" x2=".423" y1="-11.581" y2="35.925" gradientUnits="userSpaceOnUse"><stop stop-color="#F6A516"/><stop offset=".981" stop-color="#EB6623"/><stop offset="1" stop-color="#EB6623"/></linearGradient><linearGradient id="j" x1="48.956" x2="14.396" y1="-1.408" y2="46.099" gradientUnits="userSpaceOnUse"><stop stop-color="#F6A516"/><stop offset=".981" stop-color="#EB6623"/><stop offset="1" stop-color="#EB6623"/></linearGradient><linearGradient id="k" x1="50.717" x2="16.156" y1="-.125" y2="47.382" gradientUnits="userSpaceOnUse"><stop stop-color="#F6A516"/><stop offset=".981" stop-color="#EB6623"/><stop offset="1" stop-color="#EB6623"/></linearGradient><linearGradient id="l" x1="47.883" x2="13.323" y1="-2.189" y2="45.318" gradientUnits="userSpaceOnUse"><stop stop-color="#F6A516"/><stop offset=".981" stop-color="#EB6623"/><stop offset="1" stop-color="#EB6623"/></linearGradient><linearGradient id="m" x1="53.562" x2="19.001" y1="1.941" y2="49.447" gradientUnits="userSpaceOnUse"><stop stop-color="#F6A516"/><stop offset=".981" stop-color="#EB6623"/><stop offset="1" stop-color="#EB6623"/></linearGradient><linearGradient id="n" x1="52.604" x2="18.043" y1="1.239" y2="48.746" gradientUnits="userSpaceOnUse"><stop stop-color="#F6A516"/><stop offset=".981" stop-color="#EB6623"/><stop offset="1" stop-color="#EB6623"/></linearGradient><linearGradient id="o" x1="43.475" x2="8.915" y1="-5.394" y2="42.113" gradientUnits="userSpaceOnUse"><stop stop-color="#F6A516"/><stop offset=".981" stop-color="#EB6623"/><stop offset="1" stop-color="#EB6623"/></linearGradient><linearGradient id="p" x1="54.438" x2="19.878" y1="2.574" y2="50.08" gradientUnits="userSpaceOnUse"><stop stop-color="#F6A516"/><stop offset=".981" stop-color="#EB6623"/><stop offset="1" stop-color="#EB6623"/></linearGradient><linearGradient id="q" x1="48.785" x2="14.224" y1="-1.531" y2="45.975" gradientUnits="userSpaceOnUse"><stop stop-color="#F6A516"/><stop offset=".981" stop-color="#EB6623"/><stop offset="1" stop-color="#EB6623"/></linearGradient><linearGradient id="r" x1="65.211" x2="30.651" y1="10.406" y2="57.913" gradientUnits="userSpaceOnUse"><stop stop-color="#F6A516"/><stop offset=".981" stop-color="#EB6623"/><stop offset="1" stop-color="#EB6623"/></linearGradient><linearGradient id="s" x1="63.492" x2="28.931" y1="9.169" y2="56.675" gradientUnits="userSpaceOnUse"><stop stop-color="#F6A516"/><stop offset=".981" stop-color="#EB6623"/><stop offset="1" stop-color="#EB6623"/></linearGradient><linearGradient id="t" x1="60.392" x2="25.831" y1="6.904" y2="54.411" gradientUnits="userSpaceOnUse"><stop stop-color="#F6A516"/><stop offset=".981" stop-color="#EB6623"/><stop offset="1" stop-color="#EB6623"/></linearGradient><linearGradient id="u" x1="65.508" x2="30.948" y1="10.631" y2="58.138" gradientUnits="userSpaceOnUse"><stop stop-color="#F6A516"/><stop offset=".981" stop-color="#EB6623"/><stop offset="1" stop-color="#EB6623"/></linearGradient><linearGradient id="v" x1="59.416" x2="24.856" y1="6.2" y2="53.706" gradientUnits="userSpaceOnUse"><stop stop-color="#F6A516"/><stop offset=".981" stop-color="#EB6623"/><stop offset="1" stop-color="#EB6623"/></linearGradient><linearGradient id="w" x1="61.206" x2="26.646" y1="7.496" y2="55.003" gradientUnits="userSpaceOnUse"><stop stop-color="#F6A516"/><stop offset=".981" stop-color="#EB6623"/><stop offset="1" stop-color="#EB6623"/></linearGradient><linearGradient id="x" x1="71.078" x2="36.518" y1="14.682" y2="62.189" gradientUnits="userSpaceOnUse"><stop stop-color="#F6A516"/><stop offset=".981" stop-color="#EB6623"/><stop offset="1" stop-color="#EB6623"/></linearGradient><linearGradient id="y" x1="66.606" x2="32.045" y1="11.43" y2="58.937" gradientUnits="userSpaceOnUse"><stop stop-color="#F6A516"/><stop offset=".981" stop-color="#EB6623"/><stop offset="1" stop-color="#EB6623"/></linearGradient><linearGradient id="z" x1="70.836" x2="36.276" y1="14.506" y2="62.013" gradientUnits="userSpaceOnUse"><stop stop-color="#F6A516"/><stop offset=".981" stop-color="#EB6623"/><stop offset="1" stop-color="#EB6623"/></linearGradient><linearGradient id="A" x1="73.568" x2="39.008" y1="16.495" y2="64.002" gradientUnits="userSpaceOnUse"><stop stop-color="#F6A516"/><stop offset=".981" stop-color="#EB6623"/><stop offset="1" stop-color="#EB6623"/></linearGradient><linearGradient id="B" x1="69.653" x2="35.093" y1="13.643" y2="61.15" gradientUnits="userSpaceOnUse"><stop stop-color="#F6A516"/><stop offset=".981" stop-color="#EB6623"/><stop offset="1" stop-color="#EB6623"/></linearGradient><linearGradient id="C" x1="71.212" x2="36.651" y1="14.784" y2="62.291" gradientUnits="userSpaceOnUse"><stop stop-color="#F6A516"/><stop offset=".981" stop-color="#EB6623"/><stop offset="1" stop-color="#EB6623"/></linearGradient><linearGradient id="D" x1="63.553" x2="28.992" y1="9.211" y2="56.717" gradientUnits="userSpaceOnUse"><stop stop-color="#F6A516"/><stop offset=".981" stop-color="#EB6623"/><stop offset="1" stop-color="#EB6623"/></linearGradient><linearGradient id="E" x1="75.213" x2="40.653" y1="17.687" y2="65.194" gradientUnits="userSpaceOnUse"><stop stop-color="#F6A516"/><stop offset=".981" stop-color="#EB6623"/><stop offset="1" stop-color="#EB6623"/></linearGradient><linearGradient id="F" x1="78.212" x2="43.652" y1="19.872" y2="67.379" gradientUnits="userSpaceOnUse"><stop stop-color="#F6A516"/><stop offset=".981" stop-color="#EB6623"/><stop offset="1" stop-color="#EB6623"/></linearGradient><linearGradient id="G" x1="77.54" x2="42.979" y1="19.386" y2="66.893" gradientUnits="userSpaceOnUse"><stop stop-color="#F6A516"/><stop offset=".981" stop-color="#EB6623"/><stop offset="1" stop-color="#EB6623"/></linearGradient><linearGradient id="H" x1="70.434" x2="35.873" y1="14.216" y2="61.722" gradientUnits="userSpaceOnUse"><stop stop-color="#F6A516"/><stop offset=".981" stop-color="#EB6623"/><stop offset="1" stop-color="#EB6623"/></linearGradient><linearGradient id="I" x1="71.601" x2="37.04" y1="15.062" y2="62.568" gradientUnits="userSpaceOnUse"><stop stop-color="#F6A516"/><stop offset=".981" stop-color="#EB6623"/><stop offset="1" stop-color="#EB6623"/></linearGradient><linearGradient id="J" x1="70.704" x2="36.143" y1="14.414" y2="61.921" gradientUnits="userSpaceOnUse"><stop stop-color="#F6A516"/><stop offset=".981" stop-color="#EB6623"/><stop offset="1" stop-color="#EB6623"/></linearGradient><linearGradient id="K" x1="67.789" x2="33.229" y1="12.29" y2="59.797" gradientUnits="userSpaceOnUse"><stop stop-color="#F6A516"/><stop offset=".981" stop-color="#EB6623"/><stop offset="1" stop-color="#EB6623"/></linearGradient><linearGradient id="L" x1="63.051" x2="28.491" y1="8.847" y2="56.354" gradientUnits="userSpaceOnUse"><stop stop-color="#F6A516"/><stop offset=".981" stop-color="#EB6623"/><stop offset="1" stop-color="#EB6623"/></linearGradient><linearGradient id="M" x1="77.751" x2="43.191" y1="19.541" y2="67.047" gradientUnits="userSpaceOnUse"><stop stop-color="#F6A516"/><stop offset=".981" stop-color="#EB6623"/><stop offset="1" stop-color="#EB6623"/></linearGradient><linearGradient id="N" x1="72.12" x2="37.56" y1="15.442" y2="62.949" gradientUnits="userSpaceOnUse"><stop stop-color="#F6A516"/><stop offset=".981" stop-color="#EB6623"/><stop offset="1" stop-color="#EB6623"/></linearGradient><linearGradient id="O" x1="75.641" x2="41.081" y1="18" y2="65.507" gradientUnits="userSpaceOnUse"><stop stop-color="#F6A516"/><stop offset=".981" stop-color="#EB6623"/><stop offset="1" stop-color="#EB6623"/></linearGradient><linearGradient id="P" x1="61.132" x2="26.572" y1="7.447" y2="54.954" gradientUnits="userSpaceOnUse"><stop stop-color="#F6A516"/><stop offset=".981" stop-color="#EB6623"/><stop offset="1" stop-color="#EB6623"/></linearGradient><linearGradient id="Q" x1="59.371" x2="24.811" y1="6.166" y2="53.673" gradientUnits="userSpaceOnUse"><stop stop-color="#F6A516"/><stop offset=".981" stop-color="#EB6623"/><stop offset="1" stop-color="#EB6623"/></linearGradient><linearGradient id="R" x1="62.208" x2="27.648" y1="8.232" y2="55.739" gradientUnits="userSpaceOnUse"><stop stop-color="#F6A516"/><stop offset=".981" stop-color="#EB6623"/><stop offset="1" stop-color="#EB6623"/></linearGradient><linearGradient id="S" x1="56.527" x2="21.966" y1="4.094" y2="51.601" gradientUnits="userSpaceOnUse"><stop stop-color="#F6A516"/><stop offset=".981" stop-color="#EB6623"/><stop offset="1" stop-color="#EB6623"/></linearGradient><linearGradient id="T" x1="57.486" x2="22.925" y1="4.788" y2="52.295" gradientUnits="userSpaceOnUse"><stop stop-color="#F6A516"/><stop offset=".981" stop-color="#EB6623"/><stop offset="1" stop-color="#EB6623"/></linearGradient><linearGradient id="U" x1="66.614" x2="32.053" y1="11.437" y2="58.943" gradientUnits="userSpaceOnUse"><stop stop-color="#F6A516"/><stop offset=".981" stop-color="#EB6623"/><stop offset="1" stop-color="#EB6623"/></linearGradient><linearGradient id="V" x1="55.653" x2="21.093" y1="3.461" y2="50.968" gradientUnits="userSpaceOnUse"><stop stop-color="#F6A516"/><stop offset=".981" stop-color="#EB6623"/><stop offset="1" stop-color="#EB6623"/></linearGradient><linearGradient id="W" x1="61.305" x2="26.744" y1="7.574" y2="55.081" gradientUnits="userSpaceOnUse"><stop stop-color="#F6A516"/><stop offset=".981" stop-color="#EB6623"/><stop offset="1" stop-color="#EB6623"/></linearGradient><linearGradient id="X" x1="44.249" x2="9.688" y1="-4.838" y2="42.669" gradientUnits="userSpaceOnUse"><stop stop-color="#F6A516"/><stop offset=".981" stop-color="#EB6623"/><stop offset="1" stop-color="#EB6623"/></linearGradient><linearGradient id="Y" x1="45.968" x2="11.408" y1="-3.587" y2="43.92" gradientUnits="userSpaceOnUse"><stop stop-color="#F6A516"/><stop offset=".981" stop-color="#EB6623"/><stop offset="1" stop-color="#EB6623"/></linearGradient><linearGradient id="Z" x1="49.069" x2="14.508" y1="-1.325" y2="46.182" gradientUnits="userSpaceOnUse"><stop stop-color="#F6A516"/><stop offset=".981" stop-color="#EB6623"/><stop offset="1" stop-color="#EB6623"/></linearGradient><linearGradient id="aa" x1="43.95" x2="9.389" y1="-5.052" y2="42.455" gradientUnits="userSpaceOnUse"><stop stop-color="#F6A516"/><stop offset=".981" stop-color="#EB6623"/><stop offset="1" stop-color="#EB6623"/></linearGradient><linearGradient id="ab" x1="50.042" x2="15.482" y1="-.62" y2="46.886" gradientUnits="userSpaceOnUse"><stop stop-color="#F6A516"/><stop offset=".981" stop-color="#EB6623"/><stop offset="1" stop-color="#EB6623"/></linearGradient><linearGradient id="ac" x1="48.252" x2="13.691" y1="-1.925" y2="45.582" gradientUnits="userSpaceOnUse"><stop stop-color="#F6A516"/><stop offset=".981" stop-color="#EB6623"/><stop offset="1" stop-color="#EB6623"/></linearGradient><linearGradient id="ad" x1="38.381" x2="3.821" y1="-9.103" y2="38.404" gradientUnits="userSpaceOnUse"><stop stop-color="#F6A516"/><stop offset=".981" stop-color="#EB6623"/><stop offset="1" stop-color="#EB6623"/></linearGradient><linearGradient id="ae" x1="42.855" x2="8.295" y1="-5.851" y2="41.656" gradientUnits="userSpaceOnUse"><stop stop-color="#F6A516"/><stop offset=".981" stop-color="#EB6623"/><stop offset="1" stop-color="#EB6623"/></linearGradient><linearGradient id="af" x1="38.965" x2="4.405" y1="-8.68" y2="38.827" gradientUnits="userSpaceOnUse"><stop stop-color="#F6A516"/><stop offset=".981" stop-color="#EB6623"/><stop offset="1" stop-color="#EB6623"/></linearGradient><linearGradient id="ag" x1="36.233" x2="1.673" y1="-10.669" y2="36.837" gradientUnits="userSpaceOnUse"><stop stop-color="#F6A516"/><stop offset=".981" stop-color="#EB6623"/><stop offset="1" stop-color="#EB6623"/></linearGradient><linearGradient id="ah" x1="40.148" x2="5.587" y1="-7.822" y2="39.684" gradientUnits="userSpaceOnUse"><stop stop-color="#F6A516"/><stop offset=".981" stop-color="#EB6623"/><stop offset="1" stop-color="#EB6623"/></linearGradient><linearGradient id="ai" x1="38.589" x2="4.028" y1="-8.955" y2="38.552" gradientUnits="userSpaceOnUse"><stop stop-color="#F6A516"/><stop offset=".981" stop-color="#EB6623"/><stop offset="1" stop-color="#EB6623"/></linearGradient><linearGradient id="aj" x1="46.247" x2="11.687" y1="-3.382" y2="44.125" gradientUnits="userSpaceOnUse"><stop stop-color="#F6A516"/><stop offset=".981" stop-color="#EB6623"/><stop offset="1" stop-color="#EB6623"/></linearGradient><linearGradient id="ak" x1="34.587" x2=".026" y1="-11.866" y2="35.641" gradientUnits="userSpaceOnUse"><stop stop-color="#F6A516"/><stop offset=".981" stop-color="#EB6623"/><stop offset="1" stop-color="#EB6623"/></linearGradient><linearGradient id="al" x1="31.591" x2="-2.97" y1="-14.05" y2="33.457" gradientUnits="userSpaceOnUse"><stop stop-color="#F6A516"/><stop offset=".981" stop-color="#EB6623"/><stop offset="1" stop-color="#EB6623"/></linearGradient><linearGradient id="am" x1="32.262" x2="-2.298" y1="-13.557" y2="33.949" gradientUnits="userSpaceOnUse"><stop stop-color="#F6A516"/><stop offset=".981" stop-color="#EB6623"/><stop offset="1" stop-color="#EB6623"/></linearGradient><linearGradient id="an" x1="37.274" x2="27.767" y1="25.778" y2="35.815" gradientUnits="userSpaceOnUse"><stop stop-color="#F6A516"/><stop offset=".981" stop-color="#EB6623"/><stop offset="1" stop-color="#EB6623"/></linearGradient><clipPath id="a"><path fill="#fff" d="M.5.008h200v60H.5z"/></clipPath></defs></svg>